# xmcd
#
# Track frame offsets:
#	150
#	10140
#	27966
#	41788
#	58120
#	74368
#	86782
#	110862
#
# Disc length: 1781 seconds
#
# Revision: 1
# Processed by: cddbd v1.4PL0 Copyright (c) Steve Scherf et al.
# Submitted via: audiograbber 1.80
#
DISCID=6f06f308
DTITLE=Chuckanut Drive - Chuckanut Drive
DYEAR=1900
DGENRE=
TTITLE0=Wildflowers
TTITLE1=If You Don't Think It's Right
TTITLE2=Mexican Daydream
TTITLE3=The City That Took You Away
TTITLE4=Money
TTITLE5=Can't Stand
TTITLE6=Dry
TTITLE7=Black-Eyed Blues
EXTD=
EXTT0=
EXTT1=
EXTT2=
EXTT3=
EXTT4=
EXTT5=
EXTT6=
EXTT7=
PLAYORDER=
